HIERARCHY
ROOT Hips
{
 OFFSET 0.000000 0.000000 0.000000
 CHANNELS 6 Xposition Yposition Zposition Yrotation Xrotation Zrotation
 JOINT Chest
 {
  OFFSET 0.000000 12.953391 -0.028419
  CHANNELS 3 Yrotation Xrotation Zrotation
  JOINT Chest2
  {
   OFFSET 0.000000 10.280254 0.051622
   CHANNELS 3 Yrotation Xrotation Zrotation
   JOINT Chest3
   {
    OFFSET 0.000000 9.287180 0.000000
    CHANNELS 3 Yrotation Xrotation Zrotation
    JOINT Chest4
    {
     OFFSET 0.000000 9.287180 0.000000
     CHANNELS 3 Yrotation Xrotation Zrotation
     JOINT Neck
     {
      OFFSET 0.000000 13.296264 0.000000
      CHANNELS 3 Yrotation Xrotation Zrotation
      JOINT Head
      {
       OFFSET 0.000000 8.959264 0.099003
       CHANNELS 3 Yrotation Xrotation Zrotation
       End Site
       {
        OFFSET 0.000000 17.121337 0.039303
       }
      }
     }
     JOINT RightCollar
     {
      OFFSET -3.193511 7.451388 0.000000
      CHANNELS 3 Yrotation Xrotation Zrotation
      JOINT RightShoulder
      {
       OFFSET -15.792092 0.000000 0.000000
       CHANNELS 3 Yrotation Xrotation Zrotation
       JOINT RightElbow
       {
        OFFSET -31.151839 0.000000 0.000000
        CHANNELS 3 Yrotation Xrotation Zrotation
        JOINT RightWrist
        {
         OFFSET -25.536298 0.000000 0.002321
         CHANNELS 3 Yrotation Xrotation Zrotation
         End Site
         {
          OFFSET -19.133213 0.000000 0.000000
         }
        }
       }
      }
     }
     JOINT LeftCollar
     {
      OFFSET 3.193511 7.451388 0.000000
      CHANNELS 3 Yrotation Xrotation Zrotation
      JOINT LeftShoulder
      {
       OFFSET 15.792092 0.000000 0.000000
       CHANNELS 3 Yrotation Xrotation Zrotation
       JOINT LeftElbow
       {
        OFFSET 31.151839 0.000000 0.000000
        CHANNELS 3 Yrotation Xrotation Zrotation
        JOINT LeftWrist
        {
         OFFSET 25.536298 0.000000 0.002321
         CHANNELS 3 Yrotation Xrotation Zrotation
         End Site
         {
          OFFSET 19.133213 0.000000 0.000000
         }
        }
       }
      }
     }
    }
   }
  }
 }
 JOINT RightHip
 {
  OFFSET -10.745749 0.139252 0.014209
  CHANNELS 3 Yrotation Xrotation Zrotation
  JOINT RightKnee
  {
   OFFSET 0.000000 -43.743899 -0.006071
   CHANNELS 3 Yrotation Xrotation Zrotation
   JOINT RightAnkle
   {
    OFFSET 0.000000 -43.214199 0.089931
    CHANNELS 3 Yrotation Xrotation Zrotation
    JOINT RightToe
    {
     OFFSET 0.000000 -9.699830 19.151588
     CHANNELS 3 Yrotation Xrotation Zrotation
     End Site
     {
      OFFSET 0.000000 -1.292898 4.893873
     }
    }
   }
  }
 }
 JOINT LeftHip
 {
  OFFSET 10.745749 0.139252 0.014209
  CHANNELS 3 Yrotation Xrotation Zrotation
  JOINT LeftKnee
  {
   OFFSET 0.000000 -43.743899 -0.006071
   CHANNELS 3 Yrotation Xrotation Zrotation
   JOINT LeftAnkle
   {
    OFFSET 0.000000 -43.214199 0.089931
    CHANNELS 3 Yrotation Xrotation Zrotation
    JOINT LeftToe
    {
     OFFSET 0.000000 -9.699830 19.151588
     CHANNELS 3 Yrotation Xrotation Zrotation
     End Site
     {
      OFFSET 0.000000 -1.292898 4.893873
     }
    }
   }
  }
 }
}
MOTION
Frames: 9
Frame Time: 0.016667
83.399628 98.319370 -67.341320 114.362783 -3.354175 -3.114717 -4.046379 5.939402 -0.668012 -1.787337 2.645478 -0.244620 -1.787336 2.645479 -0.244621 -1.339204 1.984845 -0.175695 4.515540 20.746664 1.096081 7.881318 2.390436 0.655884 13.081374 -34.907422 -20.795471 58.142954 -35.744886 4.624946 45.212508 -27.235842 -15.481967 14.319398 -21.663775 -9.282403 -3.686928 -36.661232 20.994489 -55.667083 -26.281614 0.246511 -44.277605 -14.597573 2.052883 -4.310656 -22.791048 24.567351 -3.754433 -13.040610 -14.417591 3.426886 23.412324 -1.163008 -11.762700 7.601781 -4.860068 0.000000 0.000000 0.000000 14.578611 -4.054218 9.407626 -7.389648 13.551965 1.996132 -3.952899 -6.654266 -8.472387 0.000000 0.000000 0.000000
84.050719 98.115923 -66.344798 114.295212 -3.396107 -3.035398 -4.077467 6.007168 -0.619898 -1.801605 2.675215 -0.222260 -1.801605 2.675215 -0.222260 -1.349985 2.007088 -0.158775 4.478064 20.688603 1.055294 7.826496 2.283721 0.589825 13.097049 -34.970466 -20.805525 58.128073 -35.779981 4.626217 45.010565 -27.062451 -15.286747 14.316070 -21.636083 -9.232431 -3.616663 -36.752992 20.886540 -55.683529 -26.233947 0.260083 -44.309199 -14.733441 2.126773 -4.272400 -22.830107 24.572003 -3.715236 -12.754946 -15.317527 3.410402 22.784431 -1.224201 -12.050708 9.268859 -5.022784 -0.000000 -0.000000 0.000000 14.991830 -4.562183 9.955961 -7.715816 14.370345 2.155793 -4.114188 -6.970914 -8.969399 0.000000 0.000000 0.000000
84.681922 97.881689 -65.286995 114.301417 -3.369962 -2.948275 -4.136467 6.051239 -0.581780 -1.828196 2.694540 -0.204178 -1.828198 2.694539 -0.204178 -1.369995 2.021535 -0.145041 4.433116 20.609224 1.020585 7.756766 2.136830 0.536006 13.107900 -35.052194 -20.842345 58.047527 -35.787866 4.667770 44.846924 -26.863448 -15.133261 14.311844 -21.639032 -9.200185 -3.623554 -36.857672 20.789300 -55.702414 -26.222326 0.239587 -44.407984 -14.847029 2.331625 -4.290922 -22.824966 24.607439 -3.690420 -12.569854 -16.176646 3.284471 22.291469 -1.176423 -12.342189 11.246378 -5.040101 0.006591 0.480758 -0.940271 15.271317 -5.247680 10.447479 -7.976661 15.331726 2.391025 -4.308890 -7.279284 -9.459706 -0.000000 0.000000 0.000000
85.311837 97.618814 -64.161210 114.335118 -3.313921 -2.844370 -4.207638 6.089561 -0.564894 -1.859926 2.711509 -0.195400 -1.859929 2.711509 -0.195401 -1.393820 2.034248 -0.138269 4.386529 20.508901 0.988282 7.683828 1.950862 0.485984 13.118227 -35.143434 -20.884623 57.930658 -35.790120 4.722515 44.715267 -26.651433 -15.007966 14.308748 -21.659755 -9.177566 -3.671087 -36.967612 20.704096 -55.733418 -26.240619 0.217194 -44.559175 -14.967026 2.625531 -4.345163 -22.791634 24.662246 -3.677187 -12.442468 -16.945664 3.097246 21.922649 -1.072730 -12.563447 13.378879 -4.927802 -0.025127 0.953923 -1.884248 15.458278 -6.030395 10.920429 -8.193524 16.379965 2.659954 -4.506665 -7.575540 -9.941858 0.000000 -0.000000 0.000000
85.983051 97.334872 -62.951749 114.294396 -3.304093 -2.690071 -4.253647 6.149752 -0.606884 -1.879649 2.738693 -0.212869 -1.879649 2.738693 -0.212869 -1.408514 2.054698 -0.151194 4.341299 20.400692 0.947502 7.616081 1.750800 0.419706 13.144474 -35.215311 -20.889632 57.800107 -35.812061 4.752946 44.654840 -26.467975 -14.918780 14.314967 -21.681851 -9.162717 -3.682662 -37.043331 20.623356 -55.799583 -26.285335 0.249223 -44.743654 -15.118776 2.923114 -4.411882 -22.750658 24.723419 -3.640785 -12.296751 -17.539845 2.970108 21.696019 -0.979473 -12.502875 15.345019 -4.708505 0.000000 0.000000 0.000000 15.564583 -6.664404 11.453461 -8.363623 17.272625 2.865000 -4.600958 -7.763106 -10.392804 0.000000 0.000000 0.000000
86.715227 97.027379 -61.663342 114.176321 -3.372757 -2.478831 -4.276685 6.248385 -0.710981 -1.888252 2.783528 -0.257838 -1.888250 2.783528 -0.257839 -1.414731 2.088462 -0.184736 4.297128 20.281224 0.890256 7.555553 1.530752 0.322689 13.214483 -35.254612 -20.841677 57.660252 -35.858934 4.722295 44.692330 -26.317146 -14.870137 14.334880 -21.690501 -9.152206 -3.589285 -37.048767 20.520931 -55.920777 -26.386366 0.362075 -45.004780 -15.348776 3.226040 -4.489969 -22.703888 24.789387 -3.546769 -12.060183 -17.939889 2.982825 21.557806 -0.865819 -12.046455 17.473064 -4.883119 0.149315 -3.768309 8.128047 15.542779 -7.067310 12.074127 -8.485342 17.971606 2.966104 -4.538606 -7.865401 -10.772346 -0.000000 0.000000 -0.000000
87.488701 96.698820 -60.291259 113.983175 -3.486693 -2.216809 -4.275210 6.368541 -0.874434 -1.885066 2.838447 -0.329259 -1.885067 2.838449 -0.329262 -1.411977 2.129869 -0.238137 4.253935 20.153853 0.824736 7.499688 1.296480 0.210020 13.300762 -35.274440 -20.757144 57.506669 -35.926197 4.667739 44.799791 -26.195670 -14.855877 14.364069 -21.700623 -9.149615 -3.459892 -37.019710 20.422132 -56.078430 -26.512832 0.529960 -45.300434 -15.610469 3.533122 -4.580718 -22.649493 24.861124 -3.428513 -11.805620 -18.165776 3.059810 21.559022 -0.764132 -11.318464 19.433569 -4.905682 -0.226679 -9.122337 19.051238 15.440436 -7.316710 12.758970 -8.559226 18.518134 2.999447 -4.377142 -7.852999 -11.122712 -0.000000 0.000000 0.000000
88.287072 96.364228 -58.805613 113.620594 -3.622455 -1.889167 -4.206455 6.487465 -1.126151 -1.850673 2.893413 -0.440772 -1.850673 2.893413 -0.440772 -1.385622 2.171419 -0.321744 4.214643 20.041817 0.764138 7.449262 1.090555 0.105848 13.336484 -35.285339 -20.641114 57.348407 -36.024095 4.663316 44.934027 -26.133929 -14.867499 14.397584 -21.740368 -9.163729 -3.424394 -37.024306 20.396333 -56.236982 -26.570115 0.729952 -45.479942 -15.792683 3.753370 -4.664359 -22.602721 24.930654 -3.351474 -11.676829 -18.192858 3.087471 21.873111 -0.836612 -10.397829 19.887944 -3.237781 -1.099168 -13.225620 25.398558 15.412533 -7.405464 13.511502 -8.580340 18.789810 2.981453 -4.184992 -7.548762 -11.543689 0.000000 0.000000 0.000000
89.111494 96.012623 -57.190278 112.981556 -3.771748 -1.464284 -4.008282 6.588521 -1.489313 -1.757217 2.940898 -0.603751 -1.757220 2.940876 -0.603751 -1.314728 2.207413 -0.444262 4.173333 19.964545 0.715222 7.390915 0.948438 0.025365 13.265511 -35.310209 -20.484660 57.182718 -36.172706 4.775946 45.089613 -26.141992 -14.907035 14.440118 -21.827200 -9.207373 -3.585160 -37.101013 20.502091 -56.362388 -26.497614 0.908582 -45.495137 -15.877523 3.853394 -4.734282 -22.579561 25.014594 -3.280395 -11.772544 -17.991579 3.018910 22.714074 -1.237182 -9.264644 17.963179 1.724751 -1.707239 -15.126803 22.574219 15.567021 -7.267468 14.336983 -8.464090 18.674014 2.928509 -4.030672 -6.933583 -12.125441 -0.000429 0.383745 0.278704
